<mxfile host="app.diagrams.net" modified="2021-09-28T12:03:07.047Z" agent="5.0 (Windows NT 10.0; Win64; x64) AppleWebKit/537.36 (KHTML, like Gecko) Chrome/93.0.4577.82 Safari/537.36" etag="0LRE4_rXJ6x3ywblrW2W" version="15.3.3" type="github">
  <diagram id="I6NmEU-j-Wa7lo5rhSlF" name="Page-1">
    <mxGraphModel dx="1072" dy="927" grid="1" gridSize="10" guides="1" tooltips="1" connect="1" arrows="1" fold="1" page="1" pageScale="1" pageWidth="827" pageHeight="1169" math="0" shadow="0">
      <root>
        <mxCell id="0" />
        <mxCell id="1" parent="0" />
        <mxCell id="R-zV6-g84yjlsdc03ge8-1" value="&lt;font style=&quot;font-size: 15px&quot;&gt;&amp;lt;&amp;lt;interface&amp;gt;&amp;gt;&lt;br&gt;Computer&lt;/font&gt;" style="rounded=0;whiteSpace=wrap;html=1;hachureGap=4;pointerEvents=0;" vertex="1" parent="1">
          <mxGeometry x="60" y="360" width="150" height="90" as="geometry" />
        </mxCell>
        <mxCell id="R-zV6-g84yjlsdc03ge8-19" style="edgeStyle=none;curved=1;rounded=0;orthogonalLoop=1;jettySize=auto;html=1;endArrow=open;startSize=14;endSize=14;sourcePerimeterSpacing=8;targetPerimeterSpacing=8;" edge="1" parent="1" source="R-zV6-g84yjlsdc03ge8-2" target="R-zV6-g84yjlsdc03ge8-7">
          <mxGeometry relative="1" as="geometry" />
        </mxCell>
        <mxCell id="R-zV6-g84yjlsdc03ge8-2" value="&lt;span style=&quot;font-size: 15px&quot;&gt;ComputerImpl&lt;/span&gt;" style="rounded=0;whiteSpace=wrap;html=1;hachureGap=4;pointerEvents=0;" vertex="1" parent="1">
          <mxGeometry x="60" y="550" width="150" height="90" as="geometry" />
        </mxCell>
        <mxCell id="R-zV6-g84yjlsdc03ge8-7" value="&lt;span style=&quot;font-size: 15px&quot;&gt;&amp;lt;&amp;lt;interface&amp;gt;&amp;gt;&lt;br&gt;KeyBoard&lt;br&gt;&lt;/span&gt;" style="rounded=0;whiteSpace=wrap;html=1;hachureGap=4;pointerEvents=0;" vertex="1" parent="1">
          <mxGeometry x="350" y="550" width="150" height="90" as="geometry" />
        </mxCell>
        <mxCell id="R-zV6-g84yjlsdc03ge8-10" value="SamsungKeyBoard" style="rounded=0;whiteSpace=wrap;html=1;hachureGap=4;pointerEvents=0;" vertex="1" parent="1">
          <mxGeometry x="260" y="720" width="150" height="90" as="geometry" />
        </mxCell>
        <mxCell id="R-zV6-g84yjlsdc03ge8-11" value="AppleKeyBoard" style="rounded=0;whiteSpace=wrap;html=1;hachureGap=4;pointerEvents=0;" vertex="1" parent="1">
          <mxGeometry x="450" y="720" width="150" height="90" as="geometry" />
        </mxCell>
        <mxCell id="R-zV6-g84yjlsdc03ge8-16" value="" style="edgeStyle=elbowEdgeStyle;elbow=vertical;endArrow=classic;html=1;startSize=14;endSize=14;sourcePerimeterSpacing=8;targetPerimeterSpacing=8;exitX=0.5;exitY=0;exitDx=0;exitDy=0;entryX=0.5;entryY=1;entryDx=0;entryDy=0;" edge="1" parent="1" source="R-zV6-g84yjlsdc03ge8-10" target="R-zV6-g84yjlsdc03ge8-7">
          <mxGeometry width="50" height="50" relative="1" as="geometry">
            <mxPoint x="390" y="590" as="sourcePoint" />
            <mxPoint x="440" y="540" as="targetPoint" />
          </mxGeometry>
        </mxCell>
        <mxCell id="R-zV6-g84yjlsdc03ge8-17" value="" style="edgeStyle=elbowEdgeStyle;elbow=vertical;endArrow=classic;html=1;startSize=14;endSize=14;sourcePerimeterSpacing=8;targetPerimeterSpacing=8;entryX=0.5;entryY=1;entryDx=0;entryDy=0;" edge="1" parent="1" source="R-zV6-g84yjlsdc03ge8-11" target="R-zV6-g84yjlsdc03ge8-7">
          <mxGeometry width="50" height="50" relative="1" as="geometry">
            <mxPoint x="390" y="590" as="sourcePoint" />
            <mxPoint x="440" y="540" as="targetPoint" />
          </mxGeometry>
        </mxCell>
        <mxCell id="R-zV6-g84yjlsdc03ge8-22" value="" style="endArrow=classic;html=1;startSize=14;endSize=14;sourcePerimeterSpacing=8;targetPerimeterSpacing=8;entryX=0.5;entryY=1;entryDx=0;entryDy=0;exitX=0.5;exitY=0;exitDx=0;exitDy=0;" edge="1" parent="1" source="R-zV6-g84yjlsdc03ge8-2" target="R-zV6-g84yjlsdc03ge8-1">
          <mxGeometry width="50" height="50" relative="1" as="geometry">
            <mxPoint x="390" y="590" as="sourcePoint" />
            <mxPoint x="440" y="540" as="targetPoint" />
          </mxGeometry>
        </mxCell>
        <mxCell id="R-zV6-g84yjlsdc03ge8-23" style="edgeStyle=none;curved=1;rounded=0;orthogonalLoop=1;jettySize=auto;html=1;endArrow=open;startSize=14;endSize=14;sourcePerimeterSpacing=8;targetPerimeterSpacing=8;entryX=0;entryY=0.5;entryDx=0;entryDy=0;" edge="1" parent="1" source="R-zV6-g84yjlsdc03ge8-2" target="R-zV6-g84yjlsdc03ge8-10">
          <mxGeometry relative="1" as="geometry">
            <mxPoint x="218" y="595" as="sourcePoint" />
            <mxPoint x="342" y="595" as="targetPoint" />
            <Array as="points">
              <mxPoint x="160" y="750" />
            </Array>
          </mxGeometry>
        </mxCell>
        <mxCell id="R-zV6-g84yjlsdc03ge8-24" value="&lt;span style=&quot;font-size: 15px&quot;&gt;&amp;lt;&amp;lt;interface&amp;gt;&amp;gt;&lt;br&gt;Animal&lt;/span&gt;" style="rounded=0;whiteSpace=wrap;html=1;hachureGap=4;pointerEvents=0;" vertex="1" parent="1">
          <mxGeometry x="170" y="840" width="150" height="90" as="geometry" />
        </mxCell>
        <mxCell id="R-zV6-g84yjlsdc03ge8-25" value="Duck" style="rounded=0;whiteSpace=wrap;html=1;hachureGap=4;pointerEvents=0;" vertex="1" parent="1">
          <mxGeometry x="80" y="1010" width="150" height="90" as="geometry" />
        </mxCell>
        <mxCell id="R-zV6-g84yjlsdc03ge8-26" value="Cat" style="rounded=0;whiteSpace=wrap;html=1;hachureGap=4;pointerEvents=0;" vertex="1" parent="1">
          <mxGeometry x="270" y="1010" width="150" height="90" as="geometry" />
        </mxCell>
        <mxCell id="R-zV6-g84yjlsdc03ge8-27" value="" style="edgeStyle=elbowEdgeStyle;elbow=vertical;endArrow=classic;html=1;startSize=14;endSize=14;sourcePerimeterSpacing=8;targetPerimeterSpacing=8;exitX=0.5;exitY=0;exitDx=0;exitDy=0;entryX=0.5;entryY=1;entryDx=0;entryDy=0;" edge="1" parent="1" source="R-zV6-g84yjlsdc03ge8-25">
          <mxGeometry width="50" height="50" relative="1" as="geometry">
            <mxPoint x="210" y="880" as="sourcePoint" />
            <mxPoint x="245" y="930" as="targetPoint" />
          </mxGeometry>
        </mxCell>
        <mxCell id="R-zV6-g84yjlsdc03ge8-28" value="" style="edgeStyle=elbowEdgeStyle;elbow=vertical;endArrow=classic;html=1;startSize=14;endSize=14;sourcePerimeterSpacing=8;targetPerimeterSpacing=8;entryX=0.5;entryY=1;entryDx=0;entryDy=0;" edge="1" parent="1" source="R-zV6-g84yjlsdc03ge8-26">
          <mxGeometry width="50" height="50" relative="1" as="geometry">
            <mxPoint x="210" y="880" as="sourcePoint" />
            <mxPoint x="245" y="930" as="targetPoint" />
          </mxGeometry>
        </mxCell>
      </root>
    </mxGraphModel>
  </diagram>
</mxfile>
